<svg id="Capa_1" enable-background="new 0 0 497 497" height="512" viewBox="0 0 497 497" width="512" xmlns="http://www.w3.org/2000/svg"><g><path d="m334.946 413.24c78.591 0 144.107-55.947 158.913-130.185l-178.914-20.001z" fill="#00ccb3"/><path d="m176.033 283.055c14.806 74.238 80.322 130.185 158.913 130.185v-150.187z" fill="#00ee8a"/><path d="m493.859 219.316c-14.806-74.238-80.323-130.185-158.913-130.185l-20.001 150.186z" fill="#00ccb3"/><path d="m334.946 89.132c-78.591 0-144.107 55.947-158.913 130.185l158.913 20.001z" fill="#00ee8a"/><path d="m493.859 219.316h-158.913l-20.001 31.869 20.001 31.869h158.913c2.055-10.305 3.141-20.96 3.141-31.869s-1.086-21.564-3.141-31.869z" fill="#00969b"/><path d="m334.946 219.316h-158.913c-2.055 10.305-3.141 20.96-3.141 31.869s1.086 21.564 3.141 31.869h158.913z" fill="#00ccb3"/><path d="m227.307 41.43-124.807 217.57 122.459 24.055 51.216-123.647c19.084-46.073-2.795-98.894-48.868-117.978z" fill="#e1ebf0"/><path d="m227.307 41.43c-46.073-19.084-98.893 2.795-117.977 48.868l-51.217 123.647 68.286 71.099z" fill="#fff5f5"/><path d="m55.765 455.57c46.073 19.084 98.893-2.795 117.978-48.868l51.216-123.647-83.423-34.555-58.036 70z" fill="#e50058"/><path d="m58.113 213.945-51.216 123.647c-19.084 46.073 2.795 98.894 48.868 117.978l85.771-207.07z" fill="#ff415b"/></g></svg>